<svg xmlns="http://www.w3.org/2000/svg" width="35" height="35" viewBox="0 0 35 35">
  <defs>
    <style>
      .cls-1 {
        fill: #fff;
        fill-rule: evenodd;
      }
    </style>
  </defs>
  <path id="Play" class="cls-1" d="M680.96,882.911a1.029,1.029,0,0,1-1.029-1.03V867.119a1.029,1.029,0,0,1,1.688-.791l8.853,7.381a1.031,1.031,0,0,1,0,1.582l-8.853,7.381A1.03,1.03,0,0,1,680.96,882.911Zm1.03-13.593v10.364l6.215-5.182ZM683.46,892a17.38,17.38,0,0,1-8.548-2.236,1.029,1.029,0,0,1,1.01-1.794,15.467,15.467,0,1,0-3.349-2.547,1.03,1.03,0,0,1-1.456,1.457A17.513,17.513,0,1,1,683.46,892Z" transform="translate(-666 -857)"/>
</svg>
